<?xml version="1.0" encoding="UTF-8"?>
<!DOCTYPE svg  PUBLIC '-//W3C//DTD SVG 20010904//EN'  'http://www.w3.org/TR/2001/REC-SVG-20010904/DTD/svg10.dtd'>
<svg version="1.0" viewBox="0 0 240 240" xmlns="http://www.w3.org/2000/svg">
<g transform="translate(0 233) scale(.1 -.1)" fill="#576ee0" stroke="#576ee0" stroke-width="40">
<path d="m243 2176c-67-30-64 27-61-1040 3-936 4-965 22-985l20-22 1321 6 73 27c193 70 374 232 467 418 171 343 99 764-177 1026-95 90-179 145-279 184-123 47-123 46-127-80l-3-105 74-33c263-118 424-424 373-711-24-134-88-255-184-350-82-81-162-134-246-163-46-16-100-17-584-18h-532l2 818 3 817h310c301 0 311-1 352-22 138-74 164-243 54-353-52-52-66-56-233-78-144-18-253-90-307-202-22-47-26-68-26-150 0-152 8-165 316-475l259-260 154 154-246 249c-271 273-283 291-259 371 21 71 64 91 226 109 50 6 113 20 140 32 162 70 265 227 265 405 0 190-108 342-295 416-59 23-67 24-450 26-319 2-396 0-422-11z"/>
</g>
</svg>
